<svg xmlns="http://www.w3.org/2000/svg" width="192.04" height="79.4" viewBox="0 0 192.04 79.4">
  <defs>
    <style>
      .cls-1 {
        fill: #63d0df;
      }
    </style>
  </defs>
  <title>bubly-logo</title>
  <g id="Layer_2" data-name="Layer 2">
    <g id="Layer_2-2" data-name="Layer 2">
      <g>
        <g>
          <path class="cls-1" d="M66.17,50.72c8.21,0,12.62-6.58,13.31-13.54l7.32,1.55C85.22,51.14,76.64,58,66.17,58s-19-6.84-20.64-19.25l7.32-1.55C53.55,44.14,58,50.72,66.17,50.72Z"/>
          <path class="cls-1" d="M21.39,16.27a20.84,20.84,0,0,0-12.84,4.9V0H.31V34.37c0,15.16,9.4,23.6,21,23.6s20.94-8.77,20.94-20.8A20.56,20.56,0,0,0,21.39,16.27Zm.06,34.45A13.39,13.39,0,0,1,8.32,37.09,13.39,13.39,0,0,1,21.45,23.46,13.39,13.39,0,0,1,34.58,37.09,13.39,13.39,0,0,1,21.45,50.72Z"/>
          <path class="cls-1" d="M111.3,16.27a20.84,20.84,0,0,0-12.84,4.9V0H90.21V34.37c0,15.16,9.4,23.6,21,23.6s20.94-8.77,20.94-20.8A20.56,20.56,0,0,0,111.3,16.27Zm.06,34.45A13.39,13.39,0,0,1,98.23,37.09a13.14,13.14,0,1,1,26.26,0A13.39,13.39,0,0,1,111.36,50.72Z"/>
          <path class="cls-1" d="M137.33,0h8.08s0,43.74,0,44.25c.06,4.75.89,6.34,5.37,6.34v7a6.19,6.19,0,0,1-2.58.43c-5.55,0-10.88-3.75-10.88-13.5Z"/>
          <path class="cls-1" d="M183.24,17.17l-11.16,31-12.44-31h-8.85s15.77,37.68,16.76,40.14c-.66,4.54-3.77,10.59-8.95,10.59a8.5,8.5,0,0,1-1.94-.21v7a7.05,7.05,0,0,0,2.31.42c7.75,0,11.36-4,16.39-16.39C178,52.19,192,17.17,192,17.17Z"/>
        </g>
        <g>
          <path class="cls-1" d="M.9,72.92a3.67,3.67,0,0,0,2.29.84c.88,0,1.36-.38,1.36-.93,0-1.62-4.25-.62-4.25-3.57A2.56,2.56,0,0,1,3.1,66.71a4.5,4.5,0,0,1,2.77.93L5,68.86a3.17,3.17,0,0,0-1.88-.64c-.83,0-1.19.41-1.19.86,0,1.55,4.24.71,4.24,3.65,0,1.57-1.19,2.53-3,2.53A5.17,5.17,0,0,1,0,74.2Z"/>
          <path class="cls-1" d="M10.2,79.4V66.86h1.65v1.05a3.46,3.46,0,0,1,2.74-1.21,4.28,4.28,0,1,1,0,8.56,3.44,3.44,0,0,1-2.74-1.19V79.4Zm4.38-5.68A2.72,2.72,0,1,0,11.9,71,2.66,2.66,0,0,0,14.57,73.72Z"/>
          <path class="cls-1" d="M29.28,75v-1a3.44,3.44,0,0,1-2.74,1.19,4.28,4.28,0,1,1,0-8.56,3.48,3.48,0,0,1,2.74,1.21V66.86h1.65V75Zm-2.74-6.77A2.72,2.72,0,1,0,29.25,71,2.67,2.67,0,0,0,26.54,68.27Z"/>
          <path class="cls-1" d="M35.62,75V66.86h1.65v1c.79-.95,1.6-1.14,3.19-1.14v1.58c-2.7,0-3.19,1.1-3.19,2.51V75Z"/>
          <path class="cls-1" d="M49.19,75l-3.48-3.91V75H44.06V63.38h1.65v6.86l3.15-3.38h2.19l-3.6,3.75L51.36,75Z"/>
          <path class="cls-1" d="M57.89,75.15a3.67,3.67,0,0,1-.91.12A2,2,0,0,1,54.8,73V63.38h1.65v9.06c0,.88.21,1.27,1,1.27a3.76,3.76,0,0,0,.41,0Z"/>
          <path class="cls-1" d="M61.16,64.47a1.05,1.05,0,0,1,1.07-1.07,1.07,1.07,0,0,1,0,2.14A1.05,1.05,0,0,1,61.16,64.47Z"/>
          <rect class="cls-1" x="61.38" y="66.86" width="1.67" height="8.18"/>
          <path class="cls-1" d="M73.48,75V70.75c0-1.64-.64-2.48-2-2.48s-2.08.91-2.08,2.6V75H67.74V66.86h1.65v.88a2.9,2.9,0,0,1,2.38-1c1.95,0,3.38,1.14,3.38,3.7V75Z"/>
          <path class="cls-1" d="M86,74.08a3.44,3.44,0,0,1-2.74,1.19,4.28,4.28,0,1,1,0-8.56A3.48,3.48,0,0,1,86,67.91V66.86h1.65v7.51c0,4.1-2.5,5-4.34,5a4.28,4.28,0,0,1-3.75-2l1.53-.65a2.5,2.5,0,0,0,2.2,1.1c1.41,0,2.7-.78,2.7-3.19Zm-2.74-5.8A2.72,2.72,0,1,0,86,71,2.67,2.67,0,0,0,83.29,68.27Z"/>
          <path class="cls-1" d="M106.68,75l-2.07-5.89-2,5.89h-1.76l-3.07-8.18h1.83l2.12,6,2.15-6h1.53l2.15,6,2.12-6h1.84L108.4,75Z"/>
          <path class="cls-1" d="M121.34,75v-1a3.44,3.44,0,0,1-2.74,1.19,4.28,4.28,0,1,1,0-8.56,3.48,3.48,0,0,1,2.74,1.21V66.86H123V75Zm-2.74-6.77A2.72,2.72,0,1,0,121.3,71,2.67,2.67,0,0,0,118.6,68.27Z"/>
          <path class="cls-1" d="M131.55,75.08a4.13,4.13,0,0,1-1.29.19c-2,0-2.38-1.33-2.38-2.74v-4.1h-1.29V66.86h1.29V64.09h1.67v2.77h2.22v1.57h-2.22v3.91c0,.93.21,1.38,1.09,1.38a3.35,3.35,0,0,0,.91-.12Z"/>
          <path class="cls-1" d="M136.58,71.55a2.65,2.65,0,0,0,2.65,2.22,2.81,2.81,0,0,0,2.29-1.12l1.17.9a4.55,4.55,0,1,1,.62-2.57,5.3,5.3,0,0,1,0,.57Zm5-1.31a2.45,2.45,0,0,0-2.48-2,2.57,2.57,0,0,0-2.51,2Z"/>
          <path class="cls-1" d="M147.26,75V66.86h1.65v1c.79-.95,1.6-1.14,3.19-1.14v1.58c-2.7,0-3.19,1.1-3.19,2.51V75Z"/>
        </g>
        <g>
          <path class="cls-1" d="M181.19,58V55.1h-1.08v-.38h2.59v.38h-1.08V58Z"/>
          <path class="cls-1" d="M183.54,58V54.71h.65L185,57c.07.22.12.38.16.48l.18-.52.78-2.27h.58V58h-.42V55.24L185.29,58h-.39L184,55.2V58Z"/>
        </g>
      </g>
    </g>
  </g>
</svg>
