<svg xmlns="http://www.w3.org/2000/svg" width="221" height="100.81" viewBox="0 0 221 100.81">
  <defs>
    <style>
      .cls-1 {
        fill: #bdd431;
      }

      .cls-2 {
        fill: #0068ad;
      }

      .cls-3 {
        fill: #ee8322;
      }
    </style>
  </defs>
  <title>corwin-logo-color</title>
  <g id="Layer_2" data-name="Layer 2">
    <g id="Layer_2-2" data-name="Layer 2">
      <g>
        <path class="cls-1" d="M190.12,55.65a3,3,0,1,1,3-3,2.95,2.95,0,0,1-3,3"/>
        <path class="cls-2" d="M190.12,88.89a2.48,2.48,0,0,1-2.47-2.47V62.11a2.47,2.47,0,0,1,4.94,0V86.42a2.48,2.48,0,0,1-2.47,2.47"/>
        <path class="cls-2" d="M83.94,89.06h-.2a9.51,9.51,0,0,1-9.53-9.48V69a9.56,9.56,0,0,1,9.53-9.53h.2a9.51,9.51,0,0,1,8.32,4.94,2.47,2.47,0,1,1-4.34,2.37,4.54,4.54,0,0,0-4-2.37h-.2A4.56,4.56,0,0,0,79.2,69V79.58a4.55,4.55,0,0,0,4.54,4.54h.2a4.49,4.49,0,0,0,4-2.42,2.49,2.49,0,1,1,4.39,2.37,9.54,9.54,0,0,1-8.37,5"/>
        <path class="cls-2" d="M107,89.06h-.2a9.47,9.47,0,0,1-9.48-9.48V69a9.51,9.51,0,0,1,9.48-9.53h.2A9.51,9.51,0,0,1,116.48,69V79.58A9.47,9.47,0,0,1,107,89.06m4.54-20A4.56,4.56,0,0,0,107,64.45h-.2A4.56,4.56,0,0,0,102.26,69V79.58a4.55,4.55,0,0,0,4.54,4.54h.2a4.55,4.55,0,0,0,4.54-4.54Z"/>
        <path class="cls-2" d="M137.07,65.26l-.86-.3a5.57,5.57,0,0,0-5.09.71,5.5,5.5,0,0,0-2.32,4.54V86.44a2.5,2.5,0,0,1-5,0V70.2a10.5,10.5,0,0,1,14.07-9.89l.86.3a2.44,2.44,0,0,1,1.51,3.13,2.49,2.49,0,0,1-3.18,1.51"/>
        <path class="cls-2" d="M218.48,88.81A2.49,2.49,0,0,1,216,86.29V69a4.56,4.56,0,0,0-4.54-4.59h-.2A4.6,4.6,0,0,0,206.73,69V86.29a2.47,2.47,0,1,1-4.94,0V69a9.51,9.51,0,0,1,9.48-9.53h.2A9.56,9.56,0,0,1,221,69V86.29a2.5,2.5,0,0,1-2.52,2.52"/>
        <path class="cls-2" d="M164.31,62.18a2.45,2.45,0,1,0-4.9,0V79.43A4.6,4.6,0,0,1,154.83,84h-.2a4.6,4.6,0,0,1-4.54-4.59V62.18a2.47,2.47,0,1,0-4.94,0V79.43A9.51,9.51,0,0,0,154.63,89h.2a9.42,9.42,0,0,0,7-3.15,9.36,9.36,0,0,0,7,3.15h.2a9.55,9.55,0,0,0,9.53-9.53V62.18a2.5,2.5,0,1,0-5,0V79.43A4.56,4.56,0,0,1,169.07,84h-.2a4.61,4.61,0,0,1-4.55-4.59Z"/>
        <path class="cls-2" d="M33.14,50.16A17.91,17.91,0,0,1,35,42.27,29.55,29.55,0,1,0,58.66,66.49,18,18,0,0,1,33.14,50.16"/>
        <path class="cls-1" d="M69.12,50.16A18,18,0,0,0,35,42.27,29.54,29.54,0,0,1,58.66,66.49,18,18,0,0,0,69.12,50.16"/>
        <path class="cls-3" d="M31,24.19A13.24,13.24,0,1,1,17.71,11,13.24,13.24,0,0,1,31,24.19"/>
        <path class="cls-2" d="M41.36,6.45A6.45,6.45,0,1,1,34.91,0a6.45,6.45,0,0,1,6.45,6.45"/>
      </g>
    </g>
  </g>
</svg>
