<svg xmlns="http://www.w3.org/2000/svg" width="24" height="17.91" viewBox="0 0 24 17.91">
  <defs>
    <style>
      .cls-1 {
        fill: #ccc;
      }
    </style>
  </defs>
  <title>email-icon</title>
  <g id="Layer_2" data-name="Layer 2">
    <g id="Layer_2-2" data-name="Layer 2">
      <path class="cls-1" d="M23.31,0H.69A.69.69,0,0,0,0,.69V17.22a.69.69,0,0,0,.69.69H23.31a.69.69,0,0,0,.69-.69V.69A.69.69,0,0,0,23.31,0ZM20.8,14.7a1,1,0,0,1-1.46,0l-4.19-4.19-2.4,2.4a1,1,0,0,1-.73.3h0a1,1,0,0,1-.73-.3l-2.4-2.4L4.66,14.7A1,1,0,1,1,3.2,13.24L7.39,9.05,3.26,4.92A1,1,0,1,1,4.72,3.46L12,10.74l7.28-7.28a1,1,0,1,1,1.46,1.46L16.61,9.05l4.19,4.19A1,1,0,0,1,20.8,14.7Z"/>
    </g>
  </g>
</svg>
