<svg id="Layer_1" data-name="Layer 1" xmlns="http://www.w3.org/2000/svg" width="125" height="125" viewBox="0 0 125 125">
  <defs>
    <style>
      .cls-1 {
        fill: #d1d3d4;
      }
    </style>
  </defs>
  <title>service-icon</title>
  <g>
    <g>
      <path class="cls-1" d="M78.74,59.1l-3.86-3.86,8.77-8.76,1.74.83c9.26,4.42,17,3.64,22.93-2.32l3.86-3.86c5.1-5.1,5.55-12.86,3.73-19.19L102.52,35.32,87.06,19.87,100.45,6.48C94.12,4.67,86.37,5.1,81.27,10.21L77.4,14.07c-6,6-6.74,13.67-2.32,22.93l.83,1.74-9.48,9.48-3.86-3.86,6.78-6.78c-4.51-10.68-3.07-20.11,4.19-27.37L77.4,6.34C85.49-1.75,97.87-1.19,106.55,3L110,4.62,94.79,19.87l7.73,7.73,15.25-15.25,1.66,3.49c4.14,8.68,4.7,21.06-3.39,29.15l-3.87,3.87C104.93,56.1,95.49,57.54,84.81,53Z"/>
      <path class="cls-1" d="M12.59,122.27a10.45,10.45,0,0,1-7.4-17.85L43.45,66.16,47.31,70,9.06,108.28a5,5,0,0,0,7.07,7.07L54.37,77.09,58.24,81,20,119.21A10.43,10.43,0,0,1,12.59,122.27Z"/>
    </g>
    <path class="cls-1" d="M119.81,107.15,98.48,85.82c-.6-2.4-2.54-10.18-2.54-10.18l-.36-1.44-1.4-.48C86,70.89,86,70.89,84.69,72.1l-1.33,1.33L41,31.1l-2.8-8.4L13.79,4.38,2.24,15.93,20.57,40.36l8.4,2.8L71.3,85.49l-1.8,1.8c-1.36,1.36-1.36,1.36,2.17,9.24l.54,1.21,1.29.32,10.18,2.54L105,121.94a10.46,10.46,0,1,0,14.79-14.79ZM31.92,38.38l-8-2.67L9.46,16.44l4.85-4.85L33.58,26.05l2.67,8L79.49,77.3l-4.33,4.33Zm84,79.69a5,5,0,0,1-7.07,0L87,96.22c-.53-.53-.55-.55-10.91-3.13l-1.44-3.24,12.69-12.7L91,78.39c2.54,10.21,2.56,10.23,3.09,10.76L115.94,111A5,5,0,0,1,115.94,118.08Z"/>
  </g>
</svg>
